<mxfile host="app.diagrams.net" modified="2023-04-12T07:34:32.809Z" agent="Mozilla/5.0 (X11; Ubuntu; Linux x86_64; rv:109.0) Gecko/20100101 Firefox/112.0" etag="IAF2tdtuFH0FHM7gGnTg" version="21.1.6" type="github">
  <diagram name="Page-1" id="uZHtYWldSxpufyFr-pqT">
    <mxGraphModel dx="12900" dy="7160" grid="1" gridSize="10" guides="1" tooltips="1" connect="1" arrows="1" fold="1" page="1" pageScale="1" pageWidth="850" pageHeight="1100" math="0" shadow="0">
      <root>
        <mxCell id="0" />
        <mxCell id="1" parent="0" />
        <mxCell id="a2VivNh5aopXGgF9XRi2-7" style="edgeStyle=orthogonalEdgeStyle;rounded=0;orthogonalLoop=1;jettySize=auto;html=1;" parent="1" source="a2VivNh5aopXGgF9XRi2-1" target="a2VivNh5aopXGgF9XRi2-3" edge="1">
          <mxGeometry relative="1" as="geometry" />
        </mxCell>
        <mxCell id="a2VivNh5aopXGgF9XRi2-13" style="edgeStyle=orthogonalEdgeStyle;rounded=0;orthogonalLoop=1;jettySize=auto;html=1;exitX=0;exitY=0.75;exitDx=0;exitDy=0;entryX=0.5;entryY=0;entryDx=0;entryDy=0;" parent="1" source="a2VivNh5aopXGgF9XRi2-1" target="a2VivNh5aopXGgF9XRi2-4" edge="1">
          <mxGeometry relative="1" as="geometry" />
        </mxCell>
        <mxCell id="a2VivNh5aopXGgF9XRi2-17" style="edgeStyle=orthogonalEdgeStyle;rounded=0;orthogonalLoop=1;jettySize=auto;html=1;exitX=1;exitY=0.25;exitDx=0;exitDy=0;entryX=0.5;entryY=0;entryDx=0;entryDy=0;" parent="1" source="a2VivNh5aopXGgF9XRi2-1" target="a2VivNh5aopXGgF9XRi2-12" edge="1">
          <mxGeometry relative="1" as="geometry" />
        </mxCell>
        <mxCell id="a2VivNh5aopXGgF9XRi2-18" style="edgeStyle=orthogonalEdgeStyle;rounded=0;orthogonalLoop=1;jettySize=auto;html=1;exitX=1;exitY=0.5;exitDx=0;exitDy=0;entryX=0.5;entryY=0;entryDx=0;entryDy=0;" parent="1" source="a2VivNh5aopXGgF9XRi2-1" target="a2VivNh5aopXGgF9XRi2-5" edge="1">
          <mxGeometry relative="1" as="geometry" />
        </mxCell>
        <mxCell id="a2VivNh5aopXGgF9XRi2-20" style="edgeStyle=orthogonalEdgeStyle;rounded=0;orthogonalLoop=1;jettySize=auto;html=1;exitX=1;exitY=0.75;exitDx=0;exitDy=0;entryX=0.5;entryY=0;entryDx=0;entryDy=0;" parent="1" source="a2VivNh5aopXGgF9XRi2-1" target="a2VivNh5aopXGgF9XRi2-19" edge="1">
          <mxGeometry relative="1" as="geometry" />
        </mxCell>
        <mxCell id="a2VivNh5aopXGgF9XRi2-21" style="edgeStyle=orthogonalEdgeStyle;rounded=0;orthogonalLoop=1;jettySize=auto;html=1;exitX=0.5;exitY=1;exitDx=0;exitDy=0;" parent="1" source="a2VivNh5aopXGgF9XRi2-1" target="a2VivNh5aopXGgF9XRi2-10" edge="1">
          <mxGeometry relative="1" as="geometry" />
        </mxCell>
        <mxCell id="a2VivNh5aopXGgF9XRi2-89" style="edgeStyle=orthogonalEdgeStyle;rounded=0;orthogonalLoop=1;jettySize=auto;html=1;exitX=0;exitY=0.5;exitDx=0;exitDy=0;entryX=0.5;entryY=0;entryDx=0;entryDy=0;" parent="1" source="a2VivNh5aopXGgF9XRi2-1" target="a2VivNh5aopXGgF9XRi2-2" edge="1">
          <mxGeometry relative="1" as="geometry" />
        </mxCell>
        <mxCell id="a2VivNh5aopXGgF9XRi2-1" value="Our Stakeholders" style="whiteSpace=wrap;html=1;aspect=fixed;fillColor=#fff2cc;strokeColor=#d6b656;" parent="1" vertex="1">
          <mxGeometry x="439" y="-157" width="80" height="80" as="geometry" />
        </mxCell>
        <mxCell id="a2VivNh5aopXGgF9XRi2-88" style="edgeStyle=orthogonalEdgeStyle;rounded=0;orthogonalLoop=1;jettySize=auto;html=1;exitX=0.5;exitY=1;exitDx=0;exitDy=0;entryX=0;entryY=0.5;entryDx=0;entryDy=0;" parent="1" source="a2VivNh5aopXGgF9XRi2-2" target="a2VivNh5aopXGgF9XRi2-23" edge="1">
          <mxGeometry relative="1" as="geometry" />
        </mxCell>
        <mxCell id="a2VivNh5aopXGgF9XRi2-2" value="Buyers" style="whiteSpace=wrap;html=1;aspect=fixed;fillColor=#d5e8d4;strokeColor=#82b366;" parent="1" vertex="1">
          <mxGeometry x="80" width="80" height="80" as="geometry" />
        </mxCell>
        <mxCell id="a2VivNh5aopXGgF9XRi2-33" style="edgeStyle=orthogonalEdgeStyle;rounded=0;orthogonalLoop=1;jettySize=auto;html=1;" parent="1" source="a2VivNh5aopXGgF9XRi2-3" target="a2VivNh5aopXGgF9XRi2-23" edge="1">
          <mxGeometry relative="1" as="geometry" />
        </mxCell>
        <mxCell id="a2VivNh5aopXGgF9XRi2-3" value="Exporters" style="whiteSpace=wrap;html=1;aspect=fixed;fillColor=#d5e8d4;strokeColor=#82b366;" parent="1" vertex="1">
          <mxGeometry x="200" y="3" width="80" height="80" as="geometry" />
        </mxCell>
        <mxCell id="a2VivNh5aopXGgF9XRi2-44" style="edgeStyle=orthogonalEdgeStyle;rounded=0;orthogonalLoop=1;jettySize=auto;html=1;" parent="1" source="a2VivNh5aopXGgF9XRi2-4" target="a2VivNh5aopXGgF9XRi2-42" edge="1">
          <mxGeometry relative="1" as="geometry" />
        </mxCell>
        <mxCell id="a2VivNh5aopXGgF9XRi2-45" style="edgeStyle=orthogonalEdgeStyle;rounded=0;orthogonalLoop=1;jettySize=auto;html=1;exitX=0.75;exitY=1;exitDx=0;exitDy=0;entryX=0.5;entryY=0;entryDx=0;entryDy=0;" parent="1" source="a2VivNh5aopXGgF9XRi2-4" target="a2VivNh5aopXGgF9XRi2-43" edge="1">
          <mxGeometry relative="1" as="geometry" />
        </mxCell>
        <mxCell id="a2VivNh5aopXGgF9XRi2-4" value="Production unit " style="whiteSpace=wrap;html=1;aspect=fixed;fillColor=#d5e8d4;strokeColor=#82b366;" parent="1" vertex="1">
          <mxGeometry x="320" width="80" height="80" as="geometry" />
        </mxCell>
        <mxCell id="a2VivNh5aopXGgF9XRi2-31" style="edgeStyle=orthogonalEdgeStyle;rounded=0;orthogonalLoop=1;jettySize=auto;html=1;exitX=0.5;exitY=1;exitDx=0;exitDy=0;entryX=1;entryY=0.5;entryDx=0;entryDy=0;" parent="1" source="a2VivNh5aopXGgF9XRi2-5" edge="1">
          <mxGeometry relative="1" as="geometry">
            <mxPoint x="600" y="243" as="targetPoint" />
          </mxGeometry>
        </mxCell>
        <mxCell id="a2VivNh5aopXGgF9XRi2-5" value="&lt;div&gt;Weavers&lt;/div&gt;(End of the project)" style="whiteSpace=wrap;html=1;aspect=fixed;fillColor=#f8cecc;strokeColor=#b85450;" parent="1" vertex="1">
          <mxGeometry x="680" width="80" height="80" as="geometry" />
        </mxCell>
        <mxCell id="a2VivNh5aopXGgF9XRi2-29" style="edgeStyle=orthogonalEdgeStyle;rounded=0;orthogonalLoop=1;jettySize=auto;html=1;exitX=0.5;exitY=1;exitDx=0;exitDy=0;entryX=1;entryY=0.5;entryDx=0;entryDy=0;" parent="1" source="a2VivNh5aopXGgF9XRi2-10" target="a2VivNh5aopXGgF9XRi2-23" edge="1">
          <mxGeometry relative="1" as="geometry" />
        </mxCell>
        <mxCell id="a2VivNh5aopXGgF9XRi2-10" value="Label Step Admin" style="whiteSpace=wrap;html=1;aspect=fixed;fillColor=#d5e8d4;strokeColor=#82b366;" parent="1" vertex="1">
          <mxGeometry x="440" width="80" height="80" as="geometry" />
        </mxCell>
        <mxCell id="a2VivNh5aopXGgF9XRi2-28" style="edgeStyle=orthogonalEdgeStyle;rounded=0;orthogonalLoop=1;jettySize=auto;html=1;exitX=0.5;exitY=1;exitDx=0;exitDy=0;entryX=0.5;entryY=0;entryDx=0;entryDy=0;" parent="1" source="a2VivNh5aopXGgF9XRi2-12" edge="1">
          <mxGeometry relative="1" as="geometry">
            <mxPoint x="560" y="203" as="targetPoint" />
          </mxGeometry>
        </mxCell>
        <mxCell id="a2VivNh5aopXGgF9XRi2-12" value="Contractors" style="whiteSpace=wrap;html=1;aspect=fixed;fillColor=#dae8fc;strokeColor=#6c8ebf;" parent="1" vertex="1">
          <mxGeometry x="560" width="80" height="80" as="geometry" />
        </mxCell>
        <mxCell id="a2VivNh5aopXGgF9XRi2-32" style="edgeStyle=orthogonalEdgeStyle;rounded=0;orthogonalLoop=1;jettySize=auto;html=1;exitX=0.5;exitY=1;exitDx=0;exitDy=0;entryX=1;entryY=0.75;entryDx=0;entryDy=0;" parent="1" source="a2VivNh5aopXGgF9XRi2-19" edge="1">
          <mxGeometry relative="1" as="geometry">
            <mxPoint x="600" y="263" as="targetPoint" />
          </mxGeometry>
        </mxCell>
        <mxCell id="a2VivNh5aopXGgF9XRi2-19" value="&lt;div&gt;Household&lt;/div&gt;(End of the project)" style="whiteSpace=wrap;html=1;aspect=fixed;fillColor=#f8cecc;strokeColor=#b85450;" parent="1" vertex="1">
          <mxGeometry x="800" width="80" height="80" as="geometry" />
        </mxCell>
        <mxCell id="a2VivNh5aopXGgF9XRi2-26" style="edgeStyle=orthogonalEdgeStyle;rounded=0;orthogonalLoop=1;jettySize=auto;html=1;exitX=1;exitY=0.5;exitDx=0;exitDy=0;" parent="1" edge="1">
          <mxGeometry relative="1" as="geometry">
            <mxPoint x="486" y="393" as="sourcePoint" />
            <mxPoint x="560" y="283" as="targetPoint" />
          </mxGeometry>
        </mxCell>
        <mxCell id="a2VivNh5aopXGgF9XRi2-34" style="edgeStyle=orthogonalEdgeStyle;rounded=0;orthogonalLoop=1;jettySize=auto;html=1;exitX=0;exitY=0.5;exitDx=0;exitDy=0;" parent="1" target="a2VivNh5aopXGgF9XRi2-23" edge="1">
          <mxGeometry relative="1" as="geometry">
            <mxPoint x="436" y="393" as="sourcePoint" />
          </mxGeometry>
        </mxCell>
        <mxCell id="a2VivNh5aopXGgF9XRi2-22" value="Platforms" style="whiteSpace=wrap;html=1;aspect=fixed;fillColor=#fff2cc;strokeColor=#d6b656;" parent="1" vertex="1">
          <mxGeometry x="425" y="370" width="80" height="80" as="geometry" />
        </mxCell>
        <mxCell id="a2VivNh5aopXGgF9XRi2-23" value="Web App" style="whiteSpace=wrap;html=1;aspect=fixed;fillColor=#e1d5e7;strokeColor=#9673a6;" parent="1" vertex="1">
          <mxGeometry x="240" y="240" width="80" height="80" as="geometry" />
        </mxCell>
        <mxCell id="a2VivNh5aopXGgF9XRi2-50" style="edgeStyle=orthogonalEdgeStyle;rounded=0;orthogonalLoop=1;jettySize=auto;html=1;exitX=0.75;exitY=1;exitDx=0;exitDy=0;entryX=1;entryY=0.25;entryDx=0;entryDy=0;" parent="1" source="a2VivNh5aopXGgF9XRi2-42" target="a2VivNh5aopXGgF9XRi2-23" edge="1">
          <mxGeometry relative="1" as="geometry" />
        </mxCell>
        <mxCell id="a2VivNh5aopXGgF9XRi2-42" value="Web User" style="whiteSpace=wrap;html=1;aspect=fixed;fillColor=#d5e8d4;strokeColor=#82b366;" parent="1" vertex="1">
          <mxGeometry x="320" y="159.5" width="40.5" height="40.5" as="geometry" />
        </mxCell>
        <mxCell id="a2VivNh5aopXGgF9XRi2-47" style="edgeStyle=orthogonalEdgeStyle;rounded=0;orthogonalLoop=1;jettySize=auto;html=1;exitX=1;exitY=0.5;exitDx=0;exitDy=0;entryX=0.25;entryY=0;entryDx=0;entryDy=0;" parent="1" source="a2VivNh5aopXGgF9XRi2-43" edge="1">
          <mxGeometry relative="1" as="geometry">
            <mxPoint x="540" y="203" as="targetPoint" />
          </mxGeometry>
        </mxCell>
        <mxCell id="a2VivNh5aopXGgF9XRi2-43" value="&lt;div&gt;App &lt;br&gt;&lt;/div&gt;&lt;div&gt;user&lt;/div&gt;" style="whiteSpace=wrap;html=1;aspect=fixed;fillColor=#d5e8d4;strokeColor=#82b366;" parent="1" vertex="1">
          <mxGeometry x="360.5" y="159.5" width="40.5" height="40.5" as="geometry" />
        </mxCell>
        <mxCell id="a2VivNh5aopXGgF9XRi2-57" style="edgeStyle=orthogonalEdgeStyle;rounded=0;orthogonalLoop=1;jettySize=auto;html=1;exitX=0.5;exitY=1;exitDx=0;exitDy=0;entryX=0;entryY=0.5;entryDx=0;entryDy=0;" parent="1" source="a2VivNh5aopXGgF9XRi2-51" target="a2VivNh5aopXGgF9XRi2-53" edge="1">
          <mxGeometry relative="1" as="geometry" />
        </mxCell>
        <mxCell id="a2VivNh5aopXGgF9XRi2-58" style="edgeStyle=orthogonalEdgeStyle;rounded=0;orthogonalLoop=1;jettySize=auto;html=1;exitX=0.5;exitY=1;exitDx=0;exitDy=0;entryX=0;entryY=0.5;entryDx=0;entryDy=0;" parent="1" source="a2VivNh5aopXGgF9XRi2-51" target="a2VivNh5aopXGgF9XRi2-56" edge="1">
          <mxGeometry relative="1" as="geometry" />
        </mxCell>
        <mxCell id="a2VivNh5aopXGgF9XRi2-51" value="Label Step Admin" style="whiteSpace=wrap;html=1;aspect=fixed;fillColor=#d5e8d4;strokeColor=#82b366;" parent="1" vertex="1">
          <mxGeometry x="199" y="875" width="80" height="80" as="geometry" />
        </mxCell>
        <mxCell id="a2VivNh5aopXGgF9XRi2-64" style="edgeStyle=orthogonalEdgeStyle;rounded=0;orthogonalLoop=1;jettySize=auto;html=1;entryX=0;entryY=0.5;entryDx=0;entryDy=0;" parent="1" source="a2VivNh5aopXGgF9XRi2-53" target="a2VivNh5aopXGgF9XRi2-61" edge="1">
          <mxGeometry relative="1" as="geometry" />
        </mxCell>
        <mxCell id="a2VivNh5aopXGgF9XRi2-66" style="edgeStyle=orthogonalEdgeStyle;rounded=0;orthogonalLoop=1;jettySize=auto;html=1;exitX=1;exitY=0.5;exitDx=0;exitDy=0;entryX=0;entryY=0.5;entryDx=0;entryDy=0;" parent="1" source="a2VivNh5aopXGgF9XRi2-53" target="a2VivNh5aopXGgF9XRi2-65" edge="1">
          <mxGeometry relative="1" as="geometry" />
        </mxCell>
        <mxCell id="a2VivNh5aopXGgF9XRi2-68" style="edgeStyle=orthogonalEdgeStyle;rounded=0;orthogonalLoop=1;jettySize=auto;html=1;exitX=1;exitY=0.5;exitDx=0;exitDy=0;" parent="1" source="a2VivNh5aopXGgF9XRi2-53" target="a2VivNh5aopXGgF9XRi2-67" edge="1">
          <mxGeometry relative="1" as="geometry" />
        </mxCell>
        <mxCell id="a2VivNh5aopXGgF9XRi2-85" style="edgeStyle=orthogonalEdgeStyle;rounded=0;orthogonalLoop=1;jettySize=auto;html=1;exitX=1;exitY=0.5;exitDx=0;exitDy=0;" parent="1" source="a2VivNh5aopXGgF9XRi2-53" target="a2VivNh5aopXGgF9XRi2-84" edge="1">
          <mxGeometry relative="1" as="geometry" />
        </mxCell>
        <mxCell id="a2VivNh5aopXGgF9XRi2-53" value="Exporters" style="whiteSpace=wrap;html=1;aspect=fixed;fillColor=#dae8fc;strokeColor=#6c8ebf;" parent="1" vertex="1">
          <mxGeometry x="279" y="995" width="80" height="80" as="geometry" />
        </mxCell>
        <mxCell id="a2VivNh5aopXGgF9XRi2-74" style="edgeStyle=orthogonalEdgeStyle;rounded=0;orthogonalLoop=1;jettySize=auto;html=1;exitX=1;exitY=0.5;exitDx=0;exitDy=0;entryX=0;entryY=0.5;entryDx=0;entryDy=0;" parent="1" source="a2VivNh5aopXGgF9XRi2-56" target="a2VivNh5aopXGgF9XRi2-70" edge="1">
          <mxGeometry relative="1" as="geometry" />
        </mxCell>
        <mxCell id="a2VivNh5aopXGgF9XRi2-75" style="edgeStyle=orthogonalEdgeStyle;rounded=0;orthogonalLoop=1;jettySize=auto;html=1;exitX=1;exitY=0.5;exitDx=0;exitDy=0;entryX=0;entryY=0.5;entryDx=0;entryDy=0;" parent="1" source="a2VivNh5aopXGgF9XRi2-56" target="a2VivNh5aopXGgF9XRi2-71" edge="1">
          <mxGeometry relative="1" as="geometry" />
        </mxCell>
        <mxCell id="a2VivNh5aopXGgF9XRi2-76" style="edgeStyle=orthogonalEdgeStyle;rounded=0;orthogonalLoop=1;jettySize=auto;html=1;exitX=1;exitY=0.5;exitDx=0;exitDy=0;entryX=0;entryY=0.5;entryDx=0;entryDy=0;" parent="1" source="a2VivNh5aopXGgF9XRi2-56" target="a2VivNh5aopXGgF9XRi2-73" edge="1">
          <mxGeometry relative="1" as="geometry" />
        </mxCell>
        <mxCell id="a2VivNh5aopXGgF9XRi2-56" value="Production Units" style="whiteSpace=wrap;html=1;aspect=fixed;fillColor=#dae8fc;strokeColor=#6c8ebf;" parent="1" vertex="1">
          <mxGeometry x="280" y="1964" width="80" height="78" as="geometry" />
        </mxCell>
        <mxCell id="a2VivNh5aopXGgF9XRi2-61" value="&lt;div&gt;Create&lt;/div&gt;&lt;div&gt;&amp;nbsp;Update&lt;/div&gt;&lt;div&gt;Archive Exporter&lt;/div&gt;" style="whiteSpace=wrap;html=1;aspect=fixed;fillColor=#fff2cc;strokeColor=#d6b656;" parent="1" vertex="1">
          <mxGeometry x="519" y="714" width="80" height="80" as="geometry" />
        </mxCell>
        <mxCell id="a2VivNh5aopXGgF9XRi2-65" value="Assign Production Units" style="whiteSpace=wrap;html=1;aspect=fixed;fillColor=#fff2cc;strokeColor=#d6b656;" parent="1" vertex="1">
          <mxGeometry x="520" y="834" width="80" height="80" as="geometry" />
        </mxCell>
        <mxCell id="a2VivNh5aopXGgF9XRi2-78" style="edgeStyle=orthogonalEdgeStyle;rounded=0;orthogonalLoop=1;jettySize=auto;html=1;exitX=1;exitY=0.5;exitDx=0;exitDy=0;entryX=0;entryY=0.5;entryDx=0;entryDy=0;" parent="1" source="a2VivNh5aopXGgF9XRi2-67" target="a2VivNh5aopXGgF9XRi2-77" edge="1">
          <mxGeometry relative="1" as="geometry" />
        </mxCell>
        <mxCell id="a2VivNh5aopXGgF9XRi2-67" value="Create/ Update/ Archive Exporter Users" style="whiteSpace=wrap;html=1;aspect=fixed;fillColor=#fff2cc;strokeColor=#d6b656;" parent="1" vertex="1">
          <mxGeometry x="519" y="954" width="80" height="80" as="geometry" />
        </mxCell>
        <mxCell id="a2VivNh5aopXGgF9XRi2-70" value="Create/ Update/ Archive Production Units" style="whiteSpace=wrap;html=1;aspect=fixed;fillColor=#fff2cc;strokeColor=#d6b656;" parent="1" vertex="1">
          <mxGeometry x="519" y="1964" width="80" height="78" as="geometry" />
        </mxCell>
        <mxCell id="a2VivNh5aopXGgF9XRi2-71" value="&lt;div&gt;Create&lt;/div&gt;&lt;div&gt;Update&lt;/div&gt;&lt;div&gt;Archive&lt;/div&gt;&lt;div&gt;Users&lt;br&gt;&lt;/div&gt;" style="whiteSpace=wrap;html=1;aspect=fixed;fillColor=#fff2cc;strokeColor=#d6b656;" parent="1" vertex="1">
          <mxGeometry x="520" y="2084" width="80" height="78" as="geometry" />
        </mxCell>
        <mxCell id="a2VivNh5aopXGgF9XRi2-73" value="&lt;div&gt;Create&lt;/div&gt;&lt;div&gt;Update&lt;/div&gt;&lt;div&gt;Archive&lt;/div&gt;&lt;div&gt;Production Unit app users&lt;br&gt;&lt;/div&gt;" style="whiteSpace=wrap;html=1;aspect=fixed;fillColor=#fff2cc;strokeColor=#d6b656;" parent="1" vertex="1">
          <mxGeometry x="520" y="2204" width="80" height="78" as="geometry" />
        </mxCell>
        <mxCell id="a2VivNh5aopXGgF9XRi2-83" style="edgeStyle=orthogonalEdgeStyle;rounded=0;orthogonalLoop=1;jettySize=auto;html=1;exitX=1;exitY=0.5;exitDx=0;exitDy=0;entryX=0;entryY=0.5;entryDx=0;entryDy=0;" parent="1" source="a2VivNh5aopXGgF9XRi2-77" target="a2VivNh5aopXGgF9XRi2-82" edge="1">
          <mxGeometry relative="1" as="geometry" />
        </mxCell>
        <mxCell id="a2VivNh5aopXGgF9XRi2-130" style="edgeStyle=orthogonalEdgeStyle;rounded=0;orthogonalLoop=1;jettySize=auto;html=1;exitX=1;exitY=0.5;exitDx=0;exitDy=0;entryX=0;entryY=0.5;entryDx=0;entryDy=0;" parent="1" source="a2VivNh5aopXGgF9XRi2-77" target="a2VivNh5aopXGgF9XRi2-122" edge="1">
          <mxGeometry relative="1" as="geometry" />
        </mxCell>
        <mxCell id="a2VivNh5aopXGgF9XRi2-140" style="edgeStyle=orthogonalEdgeStyle;rounded=0;orthogonalLoop=1;jettySize=auto;html=1;exitX=1;exitY=0.5;exitDx=0;exitDy=0;entryX=0;entryY=0.5;entryDx=0;entryDy=0;" parent="1" source="a2VivNh5aopXGgF9XRi2-77" target="a2VivNh5aopXGgF9XRi2-137" edge="1">
          <mxGeometry relative="1" as="geometry" />
        </mxCell>
        <mxCell id="a2VivNh5aopXGgF9XRi2-147" style="edgeStyle=orthogonalEdgeStyle;rounded=0;orthogonalLoop=1;jettySize=auto;html=1;exitX=1;exitY=0.5;exitDx=0;exitDy=0;entryX=0;entryY=0.5;entryDx=0;entryDy=0;" parent="1" source="a2VivNh5aopXGgF9XRi2-77" target="a2VivNh5aopXGgF9XRi2-146" edge="1">
          <mxGeometry relative="1" as="geometry" />
        </mxCell>
        <mxCell id="VlnYoxp_lNb_niLRvneX-2" style="edgeStyle=orthogonalEdgeStyle;rounded=0;orthogonalLoop=1;jettySize=auto;html=1;exitX=1;exitY=0.5;exitDx=0;exitDy=0;entryX=0;entryY=0.5;entryDx=0;entryDy=0;" edge="1" parent="1" source="a2VivNh5aopXGgF9XRi2-77" target="VlnYoxp_lNb_niLRvneX-1">
          <mxGeometry relative="1" as="geometry" />
        </mxCell>
        <mxCell id="VlnYoxp_lNb_niLRvneX-18" style="edgeStyle=orthogonalEdgeStyle;rounded=0;orthogonalLoop=1;jettySize=auto;html=1;exitX=1;exitY=0.5;exitDx=0;exitDy=0;entryX=0;entryY=0.5;entryDx=0;entryDy=0;" edge="1" parent="1" source="a2VivNh5aopXGgF9XRi2-77" target="VlnYoxp_lNb_niLRvneX-11">
          <mxGeometry relative="1" as="geometry" />
        </mxCell>
        <mxCell id="a2VivNh5aopXGgF9XRi2-77" value="Exporter" style="whiteSpace=wrap;html=1;aspect=fixed;fillColor=#d5e8d4;strokeColor=#82b366;" parent="1" vertex="1">
          <mxGeometry x="680" y="954" width="80" height="80" as="geometry" />
        </mxCell>
        <mxCell id="a2VivNh5aopXGgF9XRi2-103" style="edgeStyle=orthogonalEdgeStyle;rounded=0;orthogonalLoop=1;jettySize=auto;html=1;exitX=1;exitY=0.5;exitDx=0;exitDy=0;entryX=0;entryY=0.5;entryDx=0;entryDy=0;" parent="1" source="a2VivNh5aopXGgF9XRi2-82" target="a2VivNh5aopXGgF9XRi2-86" edge="1">
          <mxGeometry relative="1" as="geometry" />
        </mxCell>
        <mxCell id="a2VivNh5aopXGgF9XRi2-115" style="edgeStyle=orthogonalEdgeStyle;rounded=0;orthogonalLoop=1;jettySize=auto;html=1;exitX=1;exitY=0.5;exitDx=0;exitDy=0;entryX=0;entryY=0.5;entryDx=0;entryDy=0;" parent="1" source="a2VivNh5aopXGgF9XRi2-82" target="a2VivNh5aopXGgF9XRi2-101" edge="1">
          <mxGeometry relative="1" as="geometry" />
        </mxCell>
        <mxCell id="a2VivNh5aopXGgF9XRi2-82" value="Production Units" style="whiteSpace=wrap;html=1;aspect=fixed;fillColor=#dae8fc;strokeColor=#6c8ebf;" parent="1" vertex="1">
          <mxGeometry x="840" y="793" width="80" height="80" as="geometry" />
        </mxCell>
        <mxCell id="a2VivNh5aopXGgF9XRi2-84" value="Update Exporter Settings" style="whiteSpace=wrap;html=1;aspect=fixed;fillColor=#fff2cc;strokeColor=#d6b656;" parent="1" vertex="1">
          <mxGeometry x="520" y="1074" width="80" height="80" as="geometry" />
        </mxCell>
        <mxCell id="a2VivNh5aopXGgF9XRi2-127" style="edgeStyle=orthogonalEdgeStyle;rounded=0;orthogonalLoop=1;jettySize=auto;html=1;exitX=0.5;exitY=1;exitDx=0;exitDy=0;entryX=0.5;entryY=0;entryDx=0;entryDy=0;" parent="1" source="a2VivNh5aopXGgF9XRi2-86" target="a2VivNh5aopXGgF9XRi2-123" edge="1">
          <mxGeometry relative="1" as="geometry" />
        </mxCell>
        <mxCell id="a2VivNh5aopXGgF9XRi2-86" value="View Assigned Production units" style="whiteSpace=wrap;html=1;aspect=fixed;fillColor=#fff2cc;strokeColor=#d6b656;" parent="1" vertex="1">
          <mxGeometry x="1000" y="793" width="80" height="80" as="geometry" />
        </mxCell>
        <mxCell id="a2VivNh5aopXGgF9XRi2-87" value="&lt;font style=&quot;font-size: 34px;&quot;&gt;Our Stakeholders&lt;/font&gt;" style="text;html=1;align=center;verticalAlign=middle;resizable=0;points=[];autosize=1;strokeColor=none;fillColor=none;" parent="1" vertex="1">
          <mxGeometry x="301" y="-237" width="290" height="50" as="geometry" />
        </mxCell>
        <mxCell id="a2VivNh5aopXGgF9XRi2-97" style="edgeStyle=orthogonalEdgeStyle;rounded=0;orthogonalLoop=1;jettySize=auto;html=1;exitX=0.5;exitY=1;exitDx=0;exitDy=0;" parent="1" source="a2VivNh5aopXGgF9XRi2-90" target="a2VivNh5aopXGgF9XRi2-92" edge="1">
          <mxGeometry relative="1" as="geometry" />
        </mxCell>
        <mxCell id="a2VivNh5aopXGgF9XRi2-98" style="edgeStyle=orthogonalEdgeStyle;rounded=0;orthogonalLoop=1;jettySize=auto;html=1;exitX=0.5;exitY=1;exitDx=0;exitDy=0;entryX=0.5;entryY=0;entryDx=0;entryDy=0;" parent="1" source="a2VivNh5aopXGgF9XRi2-90" target="a2VivNh5aopXGgF9XRi2-93" edge="1">
          <mxGeometry relative="1" as="geometry" />
        </mxCell>
        <mxCell id="a2VivNh5aopXGgF9XRi2-99" style="edgeStyle=orthogonalEdgeStyle;rounded=0;orthogonalLoop=1;jettySize=auto;html=1;exitX=0.5;exitY=1;exitDx=0;exitDy=0;entryX=0.5;entryY=0;entryDx=0;entryDy=0;" parent="1" source="a2VivNh5aopXGgF9XRi2-90" target="a2VivNh5aopXGgF9XRi2-94" edge="1">
          <mxGeometry relative="1" as="geometry" />
        </mxCell>
        <mxCell id="a2VivNh5aopXGgF9XRi2-100" style="edgeStyle=orthogonalEdgeStyle;rounded=0;orthogonalLoop=1;jettySize=auto;html=1;exitX=0.5;exitY=1;exitDx=0;exitDy=0;entryX=0.5;entryY=0;entryDx=0;entryDy=0;" parent="1" source="a2VivNh5aopXGgF9XRi2-90" target="a2VivNh5aopXGgF9XRi2-96" edge="1">
          <mxGeometry relative="1" as="geometry" />
        </mxCell>
        <mxCell id="a2VivNh5aopXGgF9XRi2-90" value="Production Units" style="whiteSpace=wrap;html=1;aspect=fixed;fillColor=#ffe6cc;strokeColor=#d79b00;" parent="1" vertex="1">
          <mxGeometry x="1321" y="-200" width="80" height="80" as="geometry" />
        </mxCell>
        <mxCell id="a2VivNh5aopXGgF9XRi2-92" value="Workshops" style="whiteSpace=wrap;html=1;aspect=fixed;fillColor=#d5e8d4;strokeColor=#82b366;" parent="1" vertex="1">
          <mxGeometry x="1116" y="-40" width="85" height="85" as="geometry" />
        </mxCell>
        <mxCell id="a2VivNh5aopXGgF9XRi2-93" value="Manufacturing Unit" style="whiteSpace=wrap;html=1;aspect=fixed;fillColor=#d5e8d4;strokeColor=#82b366;" parent="1" vertex="1">
          <mxGeometry x="1241" y="-40" width="85" height="85" as="geometry" />
        </mxCell>
        <mxCell id="a2VivNh5aopXGgF9XRi2-94" value="Factory" style="whiteSpace=wrap;html=1;aspect=fixed;fillColor=#d5e8d4;strokeColor=#82b366;" parent="1" vertex="1">
          <mxGeometry x="1361" y="-40" width="85" height="85" as="geometry" />
        </mxCell>
        <mxCell id="a2VivNh5aopXGgF9XRi2-96" value="Homebased" style="whiteSpace=wrap;html=1;aspect=fixed;fillColor=#d5e8d4;strokeColor=#82b366;" parent="1" vertex="1">
          <mxGeometry x="1481" y="-40" width="85" height="85" as="geometry" />
        </mxCell>
        <mxCell id="a2VivNh5aopXGgF9XRi2-114" style="edgeStyle=orthogonalEdgeStyle;rounded=0;orthogonalLoop=1;jettySize=auto;html=1;exitX=1;exitY=0.5;exitDx=0;exitDy=0;entryX=0;entryY=0.5;entryDx=0;entryDy=0;" parent="1" source="a2VivNh5aopXGgF9XRi2-101" target="a2VivNh5aopXGgF9XRi2-112" edge="1">
          <mxGeometry relative="1" as="geometry" />
        </mxCell>
        <mxCell id="a2VivNh5aopXGgF9XRi2-101" value="&lt;div&gt;Can create &lt;br&gt;&lt;/div&gt;&lt;div&gt;production unit?&lt;/div&gt;" style="rhombus;whiteSpace=wrap;html=1;fillColor=#f8cecc;strokeColor=#b85450;" parent="1" vertex="1">
          <mxGeometry x="1000" y="674" width="90" height="80" as="geometry" />
        </mxCell>
        <mxCell id="a2VivNh5aopXGgF9XRi2-112" value="&lt;div&gt;Create ,&lt;/div&gt;&lt;div&gt;Update self created PU&lt;br&gt;&lt;/div&gt;" style="whiteSpace=wrap;html=1;aspect=fixed;fillColor=#fff2cc;strokeColor=#d6b656;" parent="1" vertex="1">
          <mxGeometry x="1220" y="674" width="80" height="80" as="geometry" />
        </mxCell>
        <mxCell id="a2VivNh5aopXGgF9XRi2-116" value="Yes" style="text;html=1;align=center;verticalAlign=middle;resizable=0;points=[];autosize=1;strokeColor=none;fillColor=none;" parent="1" vertex="1">
          <mxGeometry x="1120" y="684" width="40" height="30" as="geometry" />
        </mxCell>
        <mxCell id="a2VivNh5aopXGgF9XRi2-128" style="edgeStyle=orthogonalEdgeStyle;rounded=0;orthogonalLoop=1;jettySize=auto;html=1;exitX=1;exitY=0.5;exitDx=0;exitDy=0;entryX=0;entryY=0.5;entryDx=0;entryDy=0;" parent="1" source="a2VivNh5aopXGgF9XRi2-122" target="a2VivNh5aopXGgF9XRi2-123" edge="1">
          <mxGeometry relative="1" as="geometry" />
        </mxCell>
        <mxCell id="a2VivNh5aopXGgF9XRi2-133" style="edgeStyle=orthogonalEdgeStyle;rounded=0;orthogonalLoop=1;jettySize=auto;html=1;exitX=1;exitY=0.5;exitDx=0;exitDy=0;entryX=0;entryY=0.5;entryDx=0;entryDy=0;" parent="1" source="a2VivNh5aopXGgF9XRi2-122" target="a2VivNh5aopXGgF9XRi2-132" edge="1">
          <mxGeometry relative="1" as="geometry" />
        </mxCell>
        <mxCell id="a2VivNh5aopXGgF9XRi2-139" style="edgeStyle=orthogonalEdgeStyle;rounded=0;orthogonalLoop=1;jettySize=auto;html=1;exitX=1;exitY=0.5;exitDx=0;exitDy=0;entryX=0;entryY=0.5;entryDx=0;entryDy=0;" parent="1" source="a2VivNh5aopXGgF9XRi2-122" target="a2VivNh5aopXGgF9XRi2-138" edge="1">
          <mxGeometry relative="1" as="geometry" />
        </mxCell>
        <mxCell id="a2VivNh5aopXGgF9XRi2-122" value="Orders" style="whiteSpace=wrap;html=1;aspect=fixed;fillColor=#dae8fc;strokeColor=#6c8ebf;" parent="1" vertex="1">
          <mxGeometry x="840" y="955" width="80" height="80" as="geometry" />
        </mxCell>
        <mxCell id="a2VivNh5aopXGgF9XRi2-123" value="Create orders" style="whiteSpace=wrap;html=1;aspect=fixed;fillColor=#fff2cc;strokeColor=#d6b656;" parent="1" vertex="1">
          <mxGeometry x="1000" y="954" width="80" height="80" as="geometry" />
        </mxCell>
        <mxCell id="a2VivNh5aopXGgF9XRi2-129" value="Create Orders for assigned Production Units" style="text;html=1;align=center;verticalAlign=middle;resizable=0;points=[];autosize=1;strokeColor=none;fillColor=none;" parent="1" vertex="1">
          <mxGeometry x="1040" y="900" width="260" height="30" as="geometry" />
        </mxCell>
        <mxCell id="a2VivNh5aopXGgF9XRi2-136" style="edgeStyle=orthogonalEdgeStyle;rounded=0;orthogonalLoop=1;jettySize=auto;html=1;exitX=1;exitY=0.5;exitDx=0;exitDy=0;entryX=0;entryY=0.5;entryDx=0;entryDy=0;" parent="1" source="a2VivNh5aopXGgF9XRi2-132" target="a2VivNh5aopXGgF9XRi2-135" edge="1">
          <mxGeometry relative="1" as="geometry" />
        </mxCell>
        <mxCell id="a2VivNh5aopXGgF9XRi2-132" value="&lt;div&gt;Self created?&lt;br&gt;&lt;/div&gt;" style="rhombus;whiteSpace=wrap;html=1;fillColor=#f8cecc;strokeColor=#b85450;" parent="1" vertex="1">
          <mxGeometry x="1000" y="1074" width="90" height="80" as="geometry" />
        </mxCell>
        <mxCell id="a2VivNh5aopXGgF9XRi2-135" value="Update and Archive Order?" style="whiteSpace=wrap;html=1;aspect=fixed;fillColor=#fff2cc;strokeColor=#d6b656;" parent="1" vertex="1">
          <mxGeometry x="1121" y="1074" width="80" height="80" as="geometry" />
        </mxCell>
        <mxCell id="a2VivNh5aopXGgF9XRi2-143" style="edgeStyle=orthogonalEdgeStyle;rounded=0;orthogonalLoop=1;jettySize=auto;html=1;exitX=1;exitY=0.5;exitDx=0;exitDy=0;" parent="1" source="a2VivNh5aopXGgF9XRi2-137" target="a2VivNh5aopXGgF9XRi2-142" edge="1">
          <mxGeometry relative="1" as="geometry" />
        </mxCell>
        <mxCell id="a2VivNh5aopXGgF9XRi2-137" value="Order Progress" style="whiteSpace=wrap;html=1;aspect=fixed;fillColor=#dae8fc;strokeColor=#6c8ebf;" parent="1" vertex="1">
          <mxGeometry x="840" y="1354" width="80" height="80" as="geometry" />
        </mxCell>
        <mxCell id="a2VivNh5aopXGgF9XRi2-144" style="edgeStyle=orthogonalEdgeStyle;rounded=0;orthogonalLoop=1;jettySize=auto;html=1;exitX=0.5;exitY=1;exitDx=0;exitDy=0;entryX=0.5;entryY=0;entryDx=0;entryDy=0;" parent="1" source="a2VivNh5aopXGgF9XRi2-138" target="a2VivNh5aopXGgF9XRi2-142" edge="1">
          <mxGeometry relative="1" as="geometry" />
        </mxCell>
        <mxCell id="VlnYoxp_lNb_niLRvneX-8" style="edgeStyle=orthogonalEdgeStyle;rounded=0;orthogonalLoop=1;jettySize=auto;html=1;exitX=0;exitY=0.75;exitDx=0;exitDy=0;entryX=0;entryY=0.25;entryDx=0;entryDy=0;strokeColor=#0000FF;" edge="1" parent="1" source="a2VivNh5aopXGgF9XRi2-138" target="VlnYoxp_lNb_niLRvneX-4">
          <mxGeometry relative="1" as="geometry" />
        </mxCell>
        <mxCell id="a2VivNh5aopXGgF9XRi2-138" value="&lt;div&gt;View Orders List&lt;/div&gt;&lt;div&gt;&amp;nbsp;(Assigned Production units)&lt;/div&gt;" style="whiteSpace=wrap;html=1;aspect=fixed;fillColor=#fff2cc;strokeColor=#d6b656;" parent="1" vertex="1">
          <mxGeometry x="1000" y="1194" width="80" height="80" as="geometry" />
        </mxCell>
        <mxCell id="a2VivNh5aopXGgF9XRi2-142" value="Add , update, delete, Order Progress" style="whiteSpace=wrap;html=1;aspect=fixed;fillColor=#fff2cc;strokeColor=#d6b656;" parent="1" vertex="1">
          <mxGeometry x="1000" y="1354" width="80" height="80" as="geometry" />
        </mxCell>
        <mxCell id="a2VivNh5aopXGgF9XRi2-145" value="Add order progress for assigned orders" style="text;html=1;align=center;verticalAlign=middle;resizable=0;points=[];autosize=1;strokeColor=none;fillColor=none;" parent="1" vertex="1">
          <mxGeometry x="1040" y="1284" width="230" height="30" as="geometry" />
        </mxCell>
        <mxCell id="a2VivNh5aopXGgF9XRi2-150" style="edgeStyle=orthogonalEdgeStyle;rounded=0;orthogonalLoop=1;jettySize=auto;html=1;exitX=1;exitY=0.5;exitDx=0;exitDy=0;entryX=0;entryY=0.5;entryDx=0;entryDy=0;" parent="1" source="a2VivNh5aopXGgF9XRi2-146" target="a2VivNh5aopXGgF9XRi2-148" edge="1">
          <mxGeometry relative="1" as="geometry" />
        </mxCell>
        <mxCell id="a2VivNh5aopXGgF9XRi2-146" value="Users" style="whiteSpace=wrap;html=1;aspect=fixed;fillColor=#dae8fc;strokeColor=#6c8ebf;" parent="1" vertex="1">
          <mxGeometry x="840" y="1514" width="80" height="80" as="geometry" />
        </mxCell>
        <mxCell id="a2VivNh5aopXGgF9XRi2-152" style="edgeStyle=orthogonalEdgeStyle;rounded=0;orthogonalLoop=1;jettySize=auto;html=1;exitX=1;exitY=0.5;exitDx=0;exitDy=0;entryX=0;entryY=0.5;entryDx=0;entryDy=0;" parent="1" source="a2VivNh5aopXGgF9XRi2-148" target="a2VivNh5aopXGgF9XRi2-151" edge="1">
          <mxGeometry relative="1" as="geometry" />
        </mxCell>
        <mxCell id="a2VivNh5aopXGgF9XRi2-153" style="edgeStyle=orthogonalEdgeStyle;rounded=0;orthogonalLoop=1;jettySize=auto;html=1;exitX=0.5;exitY=1;exitDx=0;exitDy=0;entryX=0.5;entryY=0;entryDx=0;entryDy=0;" parent="1" source="a2VivNh5aopXGgF9XRi2-148" target="a2VivNh5aopXGgF9XRi2-149" edge="1">
          <mxGeometry relative="1" as="geometry" />
        </mxCell>
        <mxCell id="a2VivNh5aopXGgF9XRi2-148" value="Web users" style="whiteSpace=wrap;html=1;aspect=fixed;fillColor=#dae8fc;strokeColor=#6c8ebf;" parent="1" vertex="1">
          <mxGeometry x="1000" y="1514" width="80" height="80" as="geometry" />
        </mxCell>
        <mxCell id="a2VivNh5aopXGgF9XRi2-158" style="edgeStyle=orthogonalEdgeStyle;rounded=0;orthogonalLoop=1;jettySize=auto;html=1;exitX=1;exitY=0.5;exitDx=0;exitDy=0;entryX=0;entryY=0.5;entryDx=0;entryDy=0;" parent="1" source="a2VivNh5aopXGgF9XRi2-149" target="a2VivNh5aopXGgF9XRi2-155" edge="1">
          <mxGeometry relative="1" as="geometry" />
        </mxCell>
        <mxCell id="a2VivNh5aopXGgF9XRi2-149" value="App Users" style="whiteSpace=wrap;html=1;aspect=fixed;fillColor=#dae8fc;strokeColor=#6c8ebf;" parent="1" vertex="1">
          <mxGeometry x="1000" y="1634" width="80" height="80" as="geometry" />
        </mxCell>
        <mxCell id="a2VivNh5aopXGgF9XRi2-151" value="&lt;div&gt;Create, update &lt;br&gt;&lt;/div&gt;&lt;div&gt;and archive&lt;br&gt;&lt;/div&gt;" style="whiteSpace=wrap;html=1;aspect=fixed;fillColor=#fff2cc;strokeColor=#d6b656;" parent="1" vertex="1">
          <mxGeometry x="1118.5" y="1514" width="80" height="80" as="geometry" />
        </mxCell>
        <mxCell id="a2VivNh5aopXGgF9XRi2-162" style="edgeStyle=orthogonalEdgeStyle;rounded=0;orthogonalLoop=1;jettySize=auto;html=1;exitX=1;exitY=0.5;exitDx=0;exitDy=0;entryX=0;entryY=0.5;entryDx=0;entryDy=0;" parent="1" source="a2VivNh5aopXGgF9XRi2-155" target="a2VivNh5aopXGgF9XRi2-161" edge="1">
          <mxGeometry relative="1" as="geometry" />
        </mxCell>
        <mxCell id="a2VivNh5aopXGgF9XRi2-155" value="&lt;div&gt;Create, update &lt;br&gt;&lt;/div&gt;&lt;div&gt;and archive&lt;br&gt;&lt;/div&gt;" style="whiteSpace=wrap;html=1;aspect=fixed;fillColor=#fff2cc;strokeColor=#d6b656;" parent="1" vertex="1">
          <mxGeometry x="1121" y="1634" width="80" height="80" as="geometry" />
        </mxCell>
        <mxCell id="a2VivNh5aopXGgF9XRi2-164" style="edgeStyle=orthogonalEdgeStyle;rounded=0;orthogonalLoop=1;jettySize=auto;html=1;exitX=1;exitY=0.5;exitDx=0;exitDy=0;entryX=0;entryY=0.5;entryDx=0;entryDy=0;" parent="1" source="a2VivNh5aopXGgF9XRi2-161" target="a2VivNh5aopXGgF9XRi2-163" edge="1">
          <mxGeometry relative="1" as="geometry" />
        </mxCell>
        <mxCell id="a2VivNh5aopXGgF9XRi2-169" style="edgeStyle=orthogonalEdgeStyle;rounded=0;orthogonalLoop=1;jettySize=auto;html=1;exitX=0.5;exitY=0;exitDx=0;exitDy=0;entryX=0.5;entryY=1;entryDx=0;entryDy=0;" parent="1" source="a2VivNh5aopXGgF9XRi2-161" target="a2VivNh5aopXGgF9XRi2-168" edge="1">
          <mxGeometry relative="1" as="geometry" />
        </mxCell>
        <mxCell id="a2VivNh5aopXGgF9XRi2-182" style="edgeStyle=orthogonalEdgeStyle;rounded=0;orthogonalLoop=1;jettySize=auto;html=1;exitX=1;exitY=0.5;exitDx=0;exitDy=0;entryX=0;entryY=0.5;entryDx=0;entryDy=0;" parent="1" source="a2VivNh5aopXGgF9XRi2-161" target="a2VivNh5aopXGgF9XRi2-180" edge="1">
          <mxGeometry relative="1" as="geometry" />
        </mxCell>
        <mxCell id="VlnYoxp_lNb_niLRvneX-20" style="edgeStyle=orthogonalEdgeStyle;rounded=0;orthogonalLoop=1;jettySize=auto;html=1;exitX=1;exitY=0.5;exitDx=0;exitDy=0;entryX=0;entryY=0.5;entryDx=0;entryDy=0;" edge="1" parent="1" source="a2VivNh5aopXGgF9XRi2-161" target="VlnYoxp_lNb_niLRvneX-19">
          <mxGeometry relative="1" as="geometry" />
        </mxCell>
        <mxCell id="VlnYoxp_lNb_niLRvneX-27" style="edgeStyle=orthogonalEdgeStyle;rounded=0;orthogonalLoop=1;jettySize=auto;html=1;exitX=1;exitY=0.5;exitDx=0;exitDy=0;entryX=0;entryY=0.5;entryDx=0;entryDy=0;" edge="1" parent="1" source="a2VivNh5aopXGgF9XRi2-161" target="VlnYoxp_lNb_niLRvneX-21">
          <mxGeometry relative="1" as="geometry" />
        </mxCell>
        <mxCell id="VlnYoxp_lNb_niLRvneX-28" style="edgeStyle=orthogonalEdgeStyle;rounded=0;orthogonalLoop=1;jettySize=auto;html=1;exitX=1;exitY=0.5;exitDx=0;exitDy=0;entryX=0;entryY=0.5;entryDx=0;entryDy=0;" edge="1" parent="1" source="a2VivNh5aopXGgF9XRi2-161" target="VlnYoxp_lNb_niLRvneX-22">
          <mxGeometry relative="1" as="geometry" />
        </mxCell>
        <mxCell id="a2VivNh5aopXGgF9XRi2-161" value="App User" style="whiteSpace=wrap;html=1;aspect=fixed;fillColor=#d5e8d4;strokeColor=#82b366;" parent="1" vertex="1">
          <mxGeometry x="1281" y="1634" width="80" height="80" as="geometry" />
        </mxCell>
        <mxCell id="a2VivNh5aopXGgF9XRi2-166" style="edgeStyle=orthogonalEdgeStyle;rounded=0;orthogonalLoop=1;jettySize=auto;html=1;exitX=1;exitY=0.5;exitDx=0;exitDy=0;entryX=0;entryY=0.5;entryDx=0;entryDy=0;" parent="1" source="a2VivNh5aopXGgF9XRi2-163" target="a2VivNh5aopXGgF9XRi2-165" edge="1">
          <mxGeometry relative="1" as="geometry" />
        </mxCell>
        <mxCell id="a2VivNh5aopXGgF9XRi2-170" style="edgeStyle=orthogonalEdgeStyle;rounded=0;orthogonalLoop=1;jettySize=auto;html=1;exitX=1;exitY=0.5;exitDx=0;exitDy=0;" parent="1" source="a2VivNh5aopXGgF9XRi2-163" target="a2VivNh5aopXGgF9XRi2-167" edge="1">
          <mxGeometry relative="1" as="geometry" />
        </mxCell>
        <mxCell id="a2VivNh5aopXGgF9XRi2-172" style="edgeStyle=orthogonalEdgeStyle;rounded=0;orthogonalLoop=1;jettySize=auto;html=1;exitX=1;exitY=0.5;exitDx=0;exitDy=0;entryX=0;entryY=0.5;entryDx=0;entryDy=0;" parent="1" source="a2VivNh5aopXGgF9XRi2-163" target="a2VivNh5aopXGgF9XRi2-171" edge="1">
          <mxGeometry relative="1" as="geometry" />
        </mxCell>
        <mxCell id="a2VivNh5aopXGgF9XRi2-163" value="&lt;div&gt;Orders&lt;/div&gt;" style="whiteSpace=wrap;html=1;aspect=fixed;fillColor=#dae8fc;strokeColor=#6c8ebf;" parent="1" vertex="1">
          <mxGeometry x="1440" y="1514" width="80" height="80" as="geometry" />
        </mxCell>
        <mxCell id="a2VivNh5aopXGgF9XRi2-165" value="&lt;div&gt;Orders&lt;/div&gt;&amp;nbsp;List" style="whiteSpace=wrap;html=1;aspect=fixed;fillColor=#fff2cc;strokeColor=#d6b656;" parent="1" vertex="1">
          <mxGeometry x="1842" y="1574" width="80" height="80" as="geometry" />
        </mxCell>
        <mxCell id="a2VivNh5aopXGgF9XRi2-167" value="Create orders" style="whiteSpace=wrap;html=1;aspect=fixed;fillColor=#fff2cc;strokeColor=#d6b656;" parent="1" vertex="1">
          <mxGeometry x="1842" y="1434" width="80" height="80" as="geometry" />
        </mxCell>
        <mxCell id="a2VivNh5aopXGgF9XRi2-168" value="Login into mobile app" style="whiteSpace=wrap;html=1;aspect=fixed;fillColor=#e1d5e7;strokeColor=#9673a6;" parent="1" vertex="1">
          <mxGeometry x="1281" y="1514" width="80" height="80" as="geometry" />
        </mxCell>
        <mxCell id="a2VivNh5aopXGgF9XRi2-174" style="edgeStyle=orthogonalEdgeStyle;rounded=0;orthogonalLoop=1;jettySize=auto;html=1;exitX=1;exitY=0.5;exitDx=0;exitDy=0;entryX=0;entryY=0.5;entryDx=0;entryDy=0;" parent="1" source="a2VivNh5aopXGgF9XRi2-171" target="a2VivNh5aopXGgF9XRi2-173" edge="1">
          <mxGeometry relative="1" as="geometry" />
        </mxCell>
        <mxCell id="a2VivNh5aopXGgF9XRi2-171" value="Synced with backend?" style="rhombus;whiteSpace=wrap;html=1;fillColor=#f8cecc;strokeColor=#b85450;" parent="1" vertex="1">
          <mxGeometry x="1842" y="1274" width="90" height="80" as="geometry" />
        </mxCell>
        <mxCell id="a2VivNh5aopXGgF9XRi2-173" value="Delete / update order details" style="whiteSpace=wrap;html=1;aspect=fixed;fillColor=#fff2cc;strokeColor=#d6b656;" parent="1" vertex="1">
          <mxGeometry x="1987" y="1274" width="80" height="80" as="geometry" />
        </mxCell>
        <mxCell id="a2VivNh5aopXGgF9XRi2-175" value="NO" style="text;html=1;align=center;verticalAlign=middle;resizable=0;points=[];autosize=1;strokeColor=none;fillColor=none;" parent="1" vertex="1">
          <mxGeometry x="1675" y="1894" width="40" height="30" as="geometry" />
        </mxCell>
        <mxCell id="a2VivNh5aopXGgF9XRi2-177" value="Note apps are offline and needs to be synced&amp;nbsp; with backend system when online " style="text;html=1;align=center;verticalAlign=middle;resizable=0;points=[];autosize=1;strokeColor=none;fillColor=none;" parent="1" vertex="1">
          <mxGeometry x="1690" y="1244" width="450" height="30" as="geometry" />
        </mxCell>
        <mxCell id="a2VivNh5aopXGgF9XRi2-179" value="Create update order progress" style="whiteSpace=wrap;html=1;aspect=fixed;fillColor=#fff2cc;strokeColor=#d6b656;" parent="1" vertex="1">
          <mxGeometry x="1600" y="1714" width="80" height="80" as="geometry" />
        </mxCell>
        <mxCell id="a2VivNh5aopXGgF9XRi2-183" style="edgeStyle=orthogonalEdgeStyle;rounded=0;orthogonalLoop=1;jettySize=auto;html=1;exitX=1;exitY=0.5;exitDx=0;exitDy=0;entryX=0;entryY=0.5;entryDx=0;entryDy=0;" parent="1" source="a2VivNh5aopXGgF9XRi2-180" target="a2VivNh5aopXGgF9XRi2-179" edge="1">
          <mxGeometry relative="1" as="geometry" />
        </mxCell>
        <mxCell id="a2VivNh5aopXGgF9XRi2-186" style="edgeStyle=orthogonalEdgeStyle;rounded=0;orthogonalLoop=1;jettySize=auto;html=1;exitX=1;exitY=0.5;exitDx=0;exitDy=0;entryX=0;entryY=0.5;entryDx=0;entryDy=0;" parent="1" source="a2VivNh5aopXGgF9XRi2-180" target="a2VivNh5aopXGgF9XRi2-185" edge="1">
          <mxGeometry relative="1" as="geometry" />
        </mxCell>
        <mxCell id="a2VivNh5aopXGgF9XRi2-180" value="&lt;div&gt;Orders&lt;/div&gt;&amp;nbsp;Progress" style="whiteSpace=wrap;html=1;aspect=fixed;fillColor=#dae8fc;strokeColor=#6c8ebf;" parent="1" vertex="1">
          <mxGeometry x="1440" y="1754" width="80" height="80" as="geometry" />
        </mxCell>
        <mxCell id="a2VivNh5aopXGgF9XRi2-189" style="edgeStyle=orthogonalEdgeStyle;rounded=0;orthogonalLoop=1;jettySize=auto;html=1;exitX=1;exitY=0.5;exitDx=0;exitDy=0;entryX=0.025;entryY=0.637;entryDx=0;entryDy=0;entryPerimeter=0;" parent="1" source="a2VivNh5aopXGgF9XRi2-185" target="a2VivNh5aopXGgF9XRi2-187" edge="1">
          <mxGeometry relative="1" as="geometry" />
        </mxCell>
        <mxCell id="a2VivNh5aopXGgF9XRi2-185" value="Synced with backend?" style="rhombus;whiteSpace=wrap;html=1;fillColor=#f8cecc;strokeColor=#b85450;" parent="1" vertex="1">
          <mxGeometry x="1600" y="1884" width="90" height="80" as="geometry" />
        </mxCell>
        <mxCell id="a2VivNh5aopXGgF9XRi2-187" value="Delete / order details" style="whiteSpace=wrap;html=1;aspect=fixed;fillColor=#fff2cc;strokeColor=#d6b656;" parent="1" vertex="1">
          <mxGeometry x="1720" y="1874" width="80" height="80" as="geometry" />
        </mxCell>
        <mxCell id="a2VivNh5aopXGgF9XRi2-190" value="NO" style="text;html=1;align=center;verticalAlign=middle;resizable=0;points=[];autosize=1;strokeColor=none;fillColor=none;" parent="1" vertex="1">
          <mxGeometry x="1932" y="1284" width="40" height="30" as="geometry" />
        </mxCell>
        <mxCell id="VlnYoxp_lNb_niLRvneX-5" style="edgeStyle=orthogonalEdgeStyle;rounded=0;orthogonalLoop=1;jettySize=auto;html=1;exitX=1;exitY=0.5;exitDx=0;exitDy=0;entryX=0;entryY=0.5;entryDx=0;entryDy=0;" edge="1" parent="1" source="VlnYoxp_lNb_niLRvneX-1" target="VlnYoxp_lNb_niLRvneX-4">
          <mxGeometry relative="1" as="geometry" />
        </mxCell>
        <mxCell id="VlnYoxp_lNb_niLRvneX-1" value="Weavers" style="whiteSpace=wrap;html=1;aspect=fixed;fillColor=#dae8fc;strokeColor=#6c8ebf;" vertex="1" parent="1">
          <mxGeometry x="840" y="610" width="80" height="80" as="geometry" />
        </mxCell>
        <mxCell id="VlnYoxp_lNb_niLRvneX-14" style="edgeStyle=orthogonalEdgeStyle;rounded=0;orthogonalLoop=1;jettySize=auto;html=1;exitX=0;exitY=0.25;exitDx=0;exitDy=0;entryX=0;entryY=0.25;entryDx=0;entryDy=0;strokeColor=#0000FF;" edge="1" parent="1" source="VlnYoxp_lNb_niLRvneX-4" target="VlnYoxp_lNb_niLRvneX-13">
          <mxGeometry relative="1" as="geometry" />
        </mxCell>
        <mxCell id="VlnYoxp_lNb_niLRvneX-4" value="&lt;div&gt;Create&lt;/div&gt;&lt;div&gt;&amp;nbsp;Update&lt;/div&gt;&lt;div&gt;Archive Weavers&lt;/div&gt;" style="whiteSpace=wrap;html=1;aspect=fixed;fillColor=#fff2cc;strokeColor=#d6b656;" vertex="1" parent="1">
          <mxGeometry x="1000" y="554" width="80" height="80" as="geometry" />
        </mxCell>
        <mxCell id="VlnYoxp_lNb_niLRvneX-9" value="Assigned production units" style="text;html=1;align=center;verticalAlign=middle;resizable=0;points=[];autosize=1;strokeColor=none;fillColor=none;" vertex="1" parent="1">
          <mxGeometry x="900" y="504" width="160" height="30" as="geometry" />
        </mxCell>
        <mxCell id="VlnYoxp_lNb_niLRvneX-15" style="edgeStyle=orthogonalEdgeStyle;rounded=0;orthogonalLoop=1;jettySize=auto;html=1;exitX=1;exitY=0.5;exitDx=0;exitDy=0;" edge="1" parent="1" source="VlnYoxp_lNb_niLRvneX-11" target="VlnYoxp_lNb_niLRvneX-13">
          <mxGeometry relative="1" as="geometry" />
        </mxCell>
        <mxCell id="VlnYoxp_lNb_niLRvneX-11" value="Loom" style="whiteSpace=wrap;html=1;aspect=fixed;fillColor=#dae8fc;strokeColor=#6c8ebf;" vertex="1" parent="1">
          <mxGeometry x="840" y="484" width="80" height="80" as="geometry" />
        </mxCell>
        <mxCell id="VlnYoxp_lNb_niLRvneX-13" value="&lt;div&gt;Create&lt;/div&gt;&lt;div&gt;&amp;nbsp;Update&lt;/div&gt;&lt;div&gt;Archive Looms&lt;/div&gt;" style="whiteSpace=wrap;html=1;aspect=fixed;fillColor=#fff2cc;strokeColor=#d6b656;" vertex="1" parent="1">
          <mxGeometry x="1000" y="450" width="80" height="80" as="geometry" />
        </mxCell>
        <mxCell id="VlnYoxp_lNb_niLRvneX-31" style="edgeStyle=orthogonalEdgeStyle;rounded=0;orthogonalLoop=1;jettySize=auto;html=1;exitX=1;exitY=0.5;exitDx=0;exitDy=0;entryX=0;entryY=0.5;entryDx=0;entryDy=0;" edge="1" parent="1" source="VlnYoxp_lNb_niLRvneX-19" target="VlnYoxp_lNb_niLRvneX-25">
          <mxGeometry relative="1" as="geometry" />
        </mxCell>
        <mxCell id="VlnYoxp_lNb_niLRvneX-19" value="Looms" style="whiteSpace=wrap;html=1;aspect=fixed;fillColor=#dae8fc;strokeColor=#6c8ebf;" vertex="1" parent="1">
          <mxGeometry x="1440" y="1385" width="80" height="93" as="geometry" />
        </mxCell>
        <mxCell id="VlnYoxp_lNb_niLRvneX-30" style="edgeStyle=orthogonalEdgeStyle;rounded=0;orthogonalLoop=1;jettySize=auto;html=1;exitX=1;exitY=0.5;exitDx=0;exitDy=0;entryX=0;entryY=0.5;entryDx=0;entryDy=0;" edge="1" parent="1" source="VlnYoxp_lNb_niLRvneX-21" target="VlnYoxp_lNb_niLRvneX-24">
          <mxGeometry relative="1" as="geometry" />
        </mxCell>
        <mxCell id="VlnYoxp_lNb_niLRvneX-21" value="Production Unit " style="whiteSpace=wrap;html=1;aspect=fixed;fillColor=#dae8fc;strokeColor=#6c8ebf;" vertex="1" parent="1">
          <mxGeometry x="1440" y="1275" width="80" height="93" as="geometry" />
        </mxCell>
        <mxCell id="VlnYoxp_lNb_niLRvneX-29" style="edgeStyle=orthogonalEdgeStyle;rounded=0;orthogonalLoop=1;jettySize=auto;html=1;exitX=1;exitY=0.5;exitDx=0;exitDy=0;entryX=0;entryY=0.5;entryDx=0;entryDy=0;" edge="1" parent="1" source="VlnYoxp_lNb_niLRvneX-22" target="VlnYoxp_lNb_niLRvneX-23">
          <mxGeometry relative="1" as="geometry" />
        </mxCell>
        <mxCell id="VlnYoxp_lNb_niLRvneX-22" value="Weavers" style="whiteSpace=wrap;html=1;aspect=fixed;fillColor=#dae8fc;strokeColor=#6c8ebf;" vertex="1" parent="1">
          <mxGeometry x="1440" y="1165" width="80" height="93" as="geometry" />
        </mxCell>
        <mxCell id="VlnYoxp_lNb_niLRvneX-23" value="View List" style="whiteSpace=wrap;html=1;aspect=fixed;fillColor=#fff2cc;strokeColor=#d6b656;" vertex="1" parent="1">
          <mxGeometry x="1566" y="1165" width="80" height="93" as="geometry" />
        </mxCell>
        <mxCell id="VlnYoxp_lNb_niLRvneX-24" value="View List" style="whiteSpace=wrap;html=1;aspect=fixed;fillColor=#fff2cc;strokeColor=#d6b656;" vertex="1" parent="1">
          <mxGeometry x="1560" y="1275" width="80" height="93" as="geometry" />
        </mxCell>
        <mxCell id="VlnYoxp_lNb_niLRvneX-25" value="View List" style="whiteSpace=wrap;html=1;aspect=fixed;fillColor=#fff2cc;strokeColor=#d6b656;" vertex="1" parent="1">
          <mxGeometry x="1560" y="1385" width="80" height="93" as="geometry" />
        </mxCell>
        <mxCell id="VlnYoxp_lNb_niLRvneX-32" value="Note apps are offline and needs to be synced&amp;nbsp; with backend system when online " style="text;html=1;align=center;verticalAlign=middle;resizable=0;points=[];autosize=1;strokeColor=none;fillColor=none;" vertex="1" parent="1">
          <mxGeometry x="1640" y="1834" width="450" height="30" as="geometry" />
        </mxCell>
      </root>
    </mxGraphModel>
  </diagram>
</mxfile>
